/* XPM */
static char *result[] = {
/* columns rows colors chars-per-pixel */
"64 64 84 1 ",
"  c black",
". c #020303",
"X c #07090A",
"o c #141413",
"O c #191B1D",
"+ c #2F1C17",
"@ c #0C3A00",
"# c #30211C",
"$ c #30211D",
"% c #2B1F23",
"& c #242A2B",
"* c #322724",
"= c #332B29",
"- c #332C2A",
"; c #342D2B",
": c #342E2D",
"> c #342F2D",
", c #382B2F",
"< c #382E31",
"1 c #383134",
"2 c #383437",
"3 c #383537",
"4 c #393537",
"5 c #393638",
"6 c #463F3A",
"7 c #463F3B",
"8 c #423F3C",
"9 c #433F3C",
"0 c #423F3D",
"q c #4B3F38",
"w c #792429",
"e c #146836",
"r c #41403C",
"t c #40403D",
"y c #43403C",
"u c #42403D",
"i c #44403C",
"p c #383F40",
"a c #393F40",
"s c #383F41",
"d c #393F41",
"f c #384040",
"g c #394040",
"h c #394041",
"j c #3D4446",
"k c #3E4546",
"l c #3E4547",
"z c #3F4547",
"x c #3E4647",
"c c #3F4647",
"v c #3F4648",
"b c #3F4748",
"n c #404648",
"m c #404748",
"M c #404749",
"N c #414849",
"B c #41484A",
"V c #41484B",
"C c #42494A",
"Z c #42494B",
"A c #43494B",
"S c #434A4B",
"D c #434A4C",
"F c #434B4C",
"G c #444B4C",
"H c #444A4D",
"J c #444B4D",
"K c #454B4D",
"L c #444C4D",
"P c #454C4D",
"I c #454C4E",
"U c #454D4E",
"Y c #464D4E",
"T c #464D4F",
"R c #6C5256",
"E c #536265",
"W c #62797E",
"Q c #AE260B",
"! c #BD541F",
"~ c #238F00",
"^ c #66A916",
"/ c #8C948F",
"( c #889C9E",
") c #9FA7A1",
/* pixels */
".                                                              X",
"CITTTTTTTTTTTTTpTpTpTTTTTTTTTTTTpTTTTTTTTTTTTTTTTTTTTTTTTTTpTpTM",
"fpppppppppppppppppppppppppppppppppppppppppppppppppppppppppppppps",
"fppppppppppppppppppppppppppppppppppppppppppppppppppppppppppppppp",
"ppp,++++++,+,+,,,,ppppp+++++++++++++++,+,+,+,,,,,,,,,,pppppppppf",
"ppp+pppppppppppppppppp+ppppppppppppppppppppppppppppppppppp+pTppf",
"app+pppppppppppppEppp+pppppppppppppppppppppppppppppppEppp+ppTppf",
"gpp+ppppppppppppEppp+pppppppppppppppppppppppppppppppEppp+pppTppf",
"mJT,TTTTTTTTTTTWTTT,TTTTTTTTTTTTTTTTTTTTTTTTTTTTTTTETTT,TTTTETTc",
"gpp+ppppppppppWppp+pppppppppppppppppppppppppppppppWppp+pppppTppg",
"bGT,TTTTTTTTTWTTT,TTTTTTTTTTTTTTTTTTTTTTTTTTTTTTTWTTT,TTTTTTETTc",
"vGT,TTTTTTTTWTTT,TTTTTTTTTTTTTTTTTTTETTTTTTTTTTTETTT,TTTTTTTWTTv",
"vFTpTTTTTTTWTTT,TTTTTTTTTTTTTTTTTTTEpTTTTTTTTTTWTTT,TTTTTTTTETUv",
"vDT,TTTTTTWTTT,TTTTTTTTTTTTTTTTTTTW,qTTTTTTTTTWTTT,TTTTTTTTTWTUv",
"vDTpTTTTTWTTT,TTTTTTTTTTTTTTTTTTTW,qqTTTTTTTTWTTT,TTTTTTTTTTWTIv",
"vDTpTTTTWTTT,TTTTTTTTTTTTTTTTTTTTTqqTTTTTTTTWTTT,TTTTTTTTTTTWTIc",
"vDTpTTTWTTTpTTTTTTTTTTTTTTTTTTTTTTqqqTTTTTTWTTTpTTTTTTTTTTTTWTIv",
"vDTpTTWTTTpTTTTTTTTTTTTTTTTTTTTTTTqqTTTTTTWTTTpTTTTTTTTTTTTTWTIv",
"vDTpTETTTTTTTTTTTTTTTTTTTTTTTTTTTTqqTTTTTWTTTTTTTTTTTTTTTTTEWTIv",
"cDTTTTTTTTEEEEEEEEEEEEWEWEWWWWWWRRRRRRWWETTTTTEEWEWWWWWWWWWWTTIv",
"cDTTTTTTTTTTTTTTTTTTTTTTTTTTTTTTTTqqqqTTTTTTTTTTTTTTTTTTTTTTTTIv",
"cDTTTTTTTTTTTTTTTTTTTTTTTTTTTTTTTTqqqqTTTTTTTTTTTTTTTTTTTTTTTTIv",
"cDTT,,,,,,,,,,,,,,,,,,,p,p,p,p,,,,%%,%,,,,,,,,,,,,p,ppTTTTTTTTIv",
"cST,pTTTTTTTTTTTTTTTTTTTTTTTTTTTTTqqTqqTTTTTTTTTTTTTTTTTTTpTETIv",
"cST,TTTTTTTTTTTTTTTTTTTTTTTTTTTTTTqTTqTTTTTTTTTTTTTTTETTTpTTETIv",
"zAT,TT/))))))))))/bTTE((WWWEETTTTTqTTqTTTTTTTTTTTTTTETTTpTTTETPv",
"zAT,TT))popp)o)p))pTT(TTTTTTTpTTTTqqTqTTTTTTTTTTTTTETTTpTTTTETPv",
"lZT,TT))))))))))))pTT(T&OOoOTpTTTTqTTTTTTTTTTTTTTTETTTpTTTTTETLv",
"lZT,TT))p)oopp))))pTTWTOO@~oTpTTTTqqTqTTTTTTTTTTTWTTT,TTTTTTETLv",
"kZT,TT/))))))))))/pTTWTOoooOTpTTTTqTTTTTTTTTTTTTWTTT,TTTTTTTWTKv",
"kZTpTTbpppppppppppbTTWTTTTTTT,TTTTTqTTTTTTTTTTTWTTT,TTTTTTTTETJv",
"kZT,TTTTTTTTTTTTTTTTTETQTQT!TpTTTTqTTTTTTTTTTTWTTT,TTTTTTTTTWTJv",
"kZTpTT/))))))/bTTTTTTWTTTTTTT,TTTTTTTTTTTTTTTWTTT,TTTTTTTTTTWTJv",
"kZTpTT))op)p))pTTTTTTETwT^TeT,TTTTqTTTTTTTTTWTTTpTTTTTTTTTTTWTJv",
"kCTpTT/))))))/pTTTTTTETTTTTTT,TTTTTTTTTTTTTWTTTpTTTTTTTTTTTTWTJv",
"kCTpTTbpppppppbTTTTTTTpp,,,,,pTTTTqTTTTTTTWTTTpTTTTTTTTTTTTTWTJb",
"kCTTTTTTTTTTTTTTTTTTTTTTTTTTTTTTTTTTTTTTTWTTTTTTTTTTTTTTTTTEWTJv",
"kCTTTEEEEEEWEWEWWWWWWWWWWWWWWWWWWEWEWEWWETTTTTEEEWEWEWWWWWWWTTJv",
"kCTTTTTTTTTTTTTTTTTTTTTTTTTTTTTTTTTTTTTTTTTTTTTTTTTTTTTTTTTTTTJv",
"kCTTTTTTTTTTTTTTTTTTTTTTTTTTTTTTTTTTTTTTTTTTTTTTTTTTTTTTTTTTTTJv",
"jBTTTTTTTTTTTTTTTTTTTTTTTTTTTTTTTTTTTTTTTTTTTTTTTTTTTTTTTTTTTTGv",
"jBTT,,,,,,p,p,ppppTTTTTp,,,,,,,,,,,,,,,,,,,,,,,,p,p,pppppppTTTGv",
"kVT,pTTTTTTTTTTTTTTTTT,TTTTTTTTTTTTTTTTTTTTTTTTTTTTTTTTTTTTTTTHn",
"fsp+pppppppppppppTppp+ppppppppppppppppppppppppppTTTTTpppppppTpph",
"fsp+ppppppppppppTppp+ppppppppppppppppppppppppTpT+,,TpTppppppTpph",
"fdp+pppppppppppEppp+ppppppppppppppppppppppppTpT+,,p,TpppppppEppd",
"fdp+ppppppppppEppp+ppppppppppppppppppppppppTTT+,,pppEpppppppTppg",
"kBT,TTTTTTTTTWTTT,TTTTTTTTTTTTTTTTTTTTTTTTTTT,qqTqTTETTTTTTTWTDv",
"tBT,TTTTTTTTWTTT,TTTTTTTTTTTTTTTTTTTTTTTTTTTT,pqqTTWETTTTTTTETDv",
"xBTpTTTTTTTWTTT,TTTTTTTTTTTTTTTTTTTTTTTTTTTTTTETTWWETTTTTTTTWTDv",
"rBY,TTTTTTWTTT,TTTTTTTTTTTTTTTTTTTTTTTTTTTTTTTTWWETTT,pTTTTTWTDv",
"cBIpTTTTTWTTT,TTTTTTTTTTTTTTTTTTTTTTTTTTTTTTTTTTTTTT,qTETTTTWTDv",
"8BIpTTTTWTTT,TTTTTTTTTTTTTTTTTTTTTTTTTTTTTTTTTTTTTTTpTWETTTTWTDv",
"8NIpTTTWTTTpTTTTTTTTTTTTTTTTTTTTTTTTTTTTTTTTTTTTTTTTTEETTTTTWTDu",
"8iIpTTWTTTpTTTTTTTTTTTTTTTTTTTTTTTTTTTTTTTTTTTTTTTTTTTTTTTTTWTDm",
"8NIpTETTTTTTTTTTTT,,pppqTTTTTTTTTTTTTTTTTTTTTTTTTTTTTTTTTTTEWTSu",
"8yITTTTTTTEEEEEEEpqqqTqTWEWWWWWWWWWWEWWWWWWWWWWWEWEWWWWWWWWWTT6b",
"8MITTTTTTTTTTTTTTTEEEEEWTTTTTTTTTTTTTTTTTTTTTTTTTTTTTTTTTTTTTTSu",
"89ITTTTqTTTTTTTTTTTTTTTTTTTTTTTTTTTTTTTTTTTTTTTTTTTTTTTTTTTTTT60",
"8yIqTTTTTTTTTTTTTTTTTTTTTTTTTTTTTTTTTTTTTTTTTTTTTTTTTTTTTTqTqT70",
"24<,p,ppppppppppppppppppppppppppppppppppppppp,ppppppppp,p,p,pp1>",
"-4<,,,ppp,ppp,pppppppp,p,pppppppppppppppppppp,,pppppp,p,,p,,,p15",
"-3#+,,,p,,,,p,,p,p,,,,p,p,p,pppppppppppppp,p,,+,,p,p,p,,p,,++,1:",
"=;$++++,+,+,,,,,+++oooo+oooo,o,,,,,,,,,,+,+,,+++,++++++,+,+,++*:"
};
